<?xml version="1.0" encoding="UTF-8" standalone="no"?>
<svg width="47px" height="10px" viewBox="0 0 47 10" version="1.1" xmlns="http://www.w3.org/2000/svg" xmlns:xlink="http://www.w3.org/1999/xlink">
    <!-- Generator: Sketch 39.1 (31720) - http://www.bohemiancoding.com/sketch -->
    <title>RadioButton</title>
    <desc>Created with Sketch.</desc>
    <defs></defs>
    <g id="Page-1" stroke="none" stroke-width="1" fill="none" fill-rule="evenodd">
        <g id="RadioButton">
            <rect id="Rectangle-Copy-3" fill="#BEBEBE" opacity="0.5" x="12" y="2" width="35" height="6"></rect>
            <g id="Group-5">
                <g id="Group-4">
                    <path d="M0,5 C0,2.23857625 2.23857625,0 5,0 C7.76142375,0 10,2.23857625 10,5 C10,7.76142375 7.76142375,10 5,10 C2.23857625,10 0,7.76142375 0,5 Z M9,5 C9,2.790861 7.209139,1 5,1 C2.790861,1 1,2.790861 1,5 C1,7.209139 2.790861,9 5,9 C7.209139,9 9,7.209139 9,5 Z" id="Combined-Shape-Copy" fill="#000000" opacity="0.5"></path>
                    <circle id="Oval-2-Copy" fill="#BEBEBE" cx="5" cy="5" r="2"></circle>
                </g>
            </g>
        </g>
    </g>
</svg>