<svg width="32" height="25" viewBox="0 0 32 25" fill="none" xmlns="http://www.w3.org/2000/svg">
<g id="Icon">
<g id="Icon group">
<mask id="mask0_68_1837" style="mask-type:alpha" maskUnits="userSpaceOnUse" x="7" y="7" width="18" height="18">
<g id="Icon mask">
<g id="S_Text_18_N">
<g id="Frame">
<path id="iconFill" fill-rule="evenodd" clip-rule="evenodd" d="M9.5 9C9.36739 9 9.24021 9.05268 9.14645 9.14645C9.05268 9.24021 9 9.36739 9 9.5V12.5C9 12.6326 9.05268 12.7598 9.14645 12.8536C9.24021 12.9473 9.36739 13 9.5 13H10.5C10.6326 13 10.7598 12.9473 10.8536 12.8536C10.9473 12.7598 11 12.6326 11 12.5V11H15V21H13.5C13.3674 21 13.2402 21.0527 13.1464 21.1464C13.0527 21.2402 13 21.3674 13 21.5V22.5C13 22.6326 13.0527 22.7598 13.1464 22.8536C13.2402 22.9473 13.3674 23 13.5 23H18.5C18.6326 23 18.7598 22.9473 18.8536 22.8536C18.9473 22.7598 19 22.6326 19 22.5V21.5C19 21.3674 18.9473 21.2402 18.8536 21.1464C18.7598 21.0527 18.6326 21 18.5 21H17V11H21V12.5C21 12.6326 21.0527 12.7598 21.1464 12.8536C21.2402 12.9473 21.3674 13 21.5 13H22.5C22.6326 13 22.7598 12.9473 22.8536 12.8536C22.9473 12.7598 23 12.6326 23 12.5V9.5C23 9.36739 22.9473 9.24021 22.8536 9.14645C22.7598 9.05268 22.6326 9 22.5 9H9.5Z" fill="#222222"/>
</g>
</g>
</g>
</mask>
<g mask="url(#mask0_68_1837)">
<rect id="Icon color" x="7" y="7" width="18" height="18" fill="#222222"/>
</g>
</g>
</g>
</svg>
