<svg width="32" height="25" viewBox="0 0 32 25" fill="none" xmlns="http://www.w3.org/2000/svg">
<g id="Icon">
<g id="Icon group">
<mask id="mask0_68_1901" style="mask-type:alpha" maskUnits="userSpaceOnUse" x="7" y="7" width="18" height="18">
<g id="Icon mask">
<g id="S2_Icon_Erase_20_N">
<g id="Frame">
<path id="iconPrimary" d="M23.1431 23.2191H22.7502C22.3775 23.2191 22.0752 22.9168 22.0752 22.5441C22.0752 22.1715 22.3775 21.8691 22.7502 21.8691H23.1431C23.5157 21.8691 23.8181 22.1715 23.8181 22.5441C23.8181 22.9168 23.5157 23.2191 23.1431 23.2191Z" fill="#292929"/>
<path id="iconPrimary_2" d="M20.5055 23.2191H18.2502C17.8775 23.2191 17.5752 22.9168 17.5752 22.5441C17.5752 22.1715 17.8775 21.8691 18.2502 21.8691H20.5055C20.8781 21.8691 21.1805 22.1715 21.1805 22.5441C21.1805 22.9168 20.8781 23.2191 20.5055 23.2191Z" fill="#292929"/>
<path id="iconPrimary_3" d="M23.3654 12.2726L20.0466 8.95386C19.2811 8.18833 17.946 8.19009 17.1823 8.95386L8.63491 17.5012C7.84653 18.2896 7.84566 19.5728 8.63228 20.3621L11.2628 23.0014C11.3894 23.1289 11.5617 23.2 11.741 23.2H15.0254C15.2047 23.2 15.3761 23.1289 15.5027 23.0023L23.3654 15.1361C23.7477 14.7538 23.9586 14.2449 23.9586 13.7043C23.9586 13.1638 23.7477 12.6549 23.3654 12.2726ZM14.7459 21.85H12.0213L9.58853 19.4093C9.32661 19.1465 9.32661 18.7185 9.58941 18.4557L11.962 16.0831L16.0924 20.2135C16.1439 20.265 16.2049 20.2977 16.2662 20.3291L14.7459 21.85ZM22.4109 14.1816L17.1623 19.4326C17.1308 19.3715 17.0981 19.3102 17.0469 19.259L12.9165 15.1286L18.1368 9.90834C18.4004 9.64379 18.8284 9.64555 19.0921 9.90834L22.4109 13.2271C22.6737 13.4899 22.6737 13.9188 22.4109 14.1816Z" fill="#292929"/>
</g>
</g>
</g>
</mask>
<g mask="url(#mask0_68_1901)">
<rect id="Icon color" x="7" y="7" width="18" height="18" fill="#222222"/>
</g>
</g>
</g>
</svg>
