<?xml version="1.0" encoding="UTF-8" standalone="no"?>
<svg width="48px" height="10px" viewBox="0 0 48 10" version="1.1" xmlns="http://www.w3.org/2000/svg" xmlns:xlink="http://www.w3.org/1999/xlink">
    <!-- Generator: Sketch 39.1 (31720) - http://www.bohemiancoding.com/sketch -->
    <title>CheckBox</title>
    <desc>Created with Sketch.</desc>
    <defs></defs>
    <g id="Page-1" stroke="none" stroke-width="1" fill="none" fill-rule="evenodd" opacity="0.5">
        <g id="CheckBox">
            <rect id="Rectangle-Copy-4" fill="#BEBEBE" x="13" y="2" width="35" height="6"></rect>
            <g id="Group-3-Copy" fill="#000000">
                <path d="M9.25243342,0.437942563 C8.90974886,0.163439846 8.47432194,0 8.00038502,0 L1.99961498,0 C0.88743329,0 0,0.895258123 0,1.99961498 L0,8.00038502 C0,9.11256671 0.895258123,10 1.99961498,10 L8.00038502,10 C9.11256671,10 10,9.10474188 10,8.00038502 L10,5.21167857 L9,6.21167426 L9,8.00038502 C9,8.55577193 8.55697267,9 8.00038502,9 L1.99961498,9 C1.44422807,9 1,8.55697267 1,8.00038502 L1,1.99961498 C1,1.44422807 1.44302733,1 1.99961498,1 L8.00038502,1 C8.19824587,1 8.3819985,1.05622882 8.53658282,1.15378927 L9.25243342,0.437942563 Z" id="Combined-Shape"></path>
                <path d="M10.6456211,1.14423158 C10.5494526,1.04808421 10.4351789,1 10.3029053,1 C10.1708,1 10.0564421,1.04808421 9.96035789,1.14423158 L6.07138947,5.03317895 L4.49067368,3.45235789 C4.39448421,3.35614737 4.28025263,3.30812632 4.14806316,3.30812632 C4.01585263,3.30812632 3.90166316,3.35614737 3.80545263,3.45235789 L3.14429474,4.11351579 C3.04812632,4.20968421 3,4.32391579 3,4.45618947 C3,4.5884 3.04812632,4.70258947 3.14429474,4.7988 L5.72886316,7.38336842 C5.82505263,7.4796 5.93928421,7.5276 6.07147368,7.5276 C6.20366316,7.5276 6.31787368,7.47962105 6.41408421,7.38336842 L11.3068,2.49067368 C11.4029053,2.39452632 11.4510947,2.28027368 11.4510947,2.14806316 C11.4510947,2.01585263 11.4030316,1.90162105 11.3068632,1.80547368 L10.6456211,1.14423158 Z" id="Path"></path>
            </g>
        </g>
    </g>
</svg>