<svg width="18" height="18" viewBox="0 0 18 18" fill="none" xmlns="http://www.w3.org/2000/svg">
<mask id="mask0_137_1576" style="mask-type:alpha" maskUnits="userSpaceOnUse" x="0" y="0" width="18" height="18">
<path fill-rule="evenodd" clip-rule="evenodd" d="M13.2427 3.34317L8.99968 7.58617L4.75668 3.34317C4.66292 3.24943 4.53576 3.19678 4.40318 3.19678C4.2706 3.19678 4.14345 3.24943 4.04968 3.34317L3.34268 4.05017C3.24895 4.14393 3.19629 4.27109 3.19629 4.40367C3.19629 4.53625 3.24895 4.66341 3.34268 4.75717L7.58568 9.00017L3.34268 13.2432C3.24895 13.3369 3.19629 13.4641 3.19629 13.5967C3.19629 13.7293 3.24895 13.8564 3.34268 13.9502L4.04968 14.6572C4.14345 14.7509 4.2706 14.8036 4.40318 14.8036C4.53576 14.8036 4.66292 14.7509 4.75668 14.6572L8.99968 10.4142L13.2427 14.6572C13.3364 14.7509 13.4636 14.8036 13.5962 14.8036C13.7288 14.8036 13.8559 14.7509 13.9497 14.6572L14.6567 13.9502C14.7504 13.8564 14.8031 13.7293 14.8031 13.5967C14.8031 13.4641 14.7504 13.3369 14.6567 13.2432L10.4137 9.00017L14.6567 4.75717C14.7504 4.66341 14.8031 4.53625 14.8031 4.40367C14.8031 4.27109 14.7504 4.14393 14.6567 4.05017L13.9497 3.34317C13.8559 3.24943 13.7288 3.19678 13.5962 3.19678C13.4636 3.19678 13.3364 3.24943 13.2427 3.34317Z" fill="#222222"/>
</mask>
<g mask="url(#mask0_137_1576)">
<rect width="18" height="18" fill="#222222"/>
</g>
</svg>
