<?xml version="1.0" encoding="UTF-8" standalone="no"?>
<svg width="6px" height="4px" viewBox="0 0 6 4" version="1.1" xmlns="http://www.w3.org/2000/svg" xmlns:xlink="http://www.w3.org/1999/xlink">
    <!-- Generator: Sketch 39.1 (31720) - http://www.bohemiancoding.com/sketch -->
    <title>DropdownChevron</title>
    <desc>Created with Sketch.</desc>
    <defs></defs>
    <g id="Page-1" stroke="none" stroke-width="1" fill="none" fill-rule="evenodd" opacity="0.5">
        <g id="DropdownChevron" transform="translate(3.000000, 1.894382) rotate(-90.000000) translate(-3.000000, -1.894382) translate(1.105618, -1.105618)" fill="#000000">
            <path d="M1.76804494,2.99877303 L3.63883146,1.12790562 C3.73388764,1.03294382 3.78130787,0.9168 3.78130787,0.77948764 C3.78130787,0.642188764 3.73387416,0.526098876 3.63883146,0.431150562 L3.35017079,0.142395506 C3.25526292,0.0474741573 3.13910562,0 3.00184719,0 C2.86458876,0 2.74848539,0.0474741573 2.65342921,0.142395506 L0.143582022,2.64842697 C0.0486067416,2.74338876 0.00111910112,2.8595191 0.00111910112,2.99684494 C0.00111910112,3.13417079 0.0485932584,3.25020674 0.143582022,3.34520899 L2.65341573,5.85124045 C2.74847191,5.94620225 2.8645618,5.9936764 3.00183371,5.9936764 C3.13910562,5.9936764 3.25524944,5.94620225 3.3501573,5.85124045 L3.63881798,5.56253933 C3.73387416,5.46763146 3.78129438,5.35214831 3.78129438,5.21606292 C3.78129438,5.08008539 3.73386067,4.96330787 3.63881798,4.86579775 L1.76804494,2.99877303 L1.76804494,2.99877303 Z" id="Shape"></path>
        </g>
    </g>
</svg>