<svg xmlns="http://www.w3.org/2000/svg" height="18" viewBox="0 0 18 18" width="18">
  <rect fill="#ff13dc" opacity="0" width="18" height="18"/>
  <rect fill="#222222" height="2" rx="0.5" width="6" x="1" y="12"/>
  <rect fill="#222222" height="2" rx="0.5" width="8" x="1" y="8"/>
  <rect fill="#222222" height="2" rx="0.5" width="10" x="1" y="4"/>
  <path fill="#222222" d="M16,12H14.9965V4.5a.494.494,0,0,0-.488-.5L14.503,4h-.496a.5.5,0,0,0-.5.5L13.5035,12H12.5a.25.25,0,0,0-.25.25.245.245,0,0,0,.0735.175l1.7685,2.0165a.25.25,0,0,0,.316,0l1.7685-2.0165a.245.245,0,0,0,.0735-.175A.25.25,0,0,0,16,12Z"/>
</svg>
